# xmcd
#
# Track frame offsets: 
#        150
#        20087
#        41730
#        60799
#        79922
#        101093
#        123026
#        143397
#        162680
#        184284
#        206297
#        226220
#        242557
#
# Disc length: 3541 seconds
#
# Revision: 0
# Processed by: cddbd v1.5.2PL0 Copyright (c) Steve Scherf et al.
# Submitted via: ExactAudioCopy v0.99pb5
#
DISCID=a40dd30d
DTITLE=Spasenie - Crossing The Jordan
DYEAR=2004
DGENRE=Gospel
TTITLE0=The Word Was Spoken
TTITLE1=Hold on
TTITLE2=The Garden of the King
TTITLE3=Son of Mercy
TTITLE4=Live wire
TTITLE5=Joshua's dream
TTITLE6=New song
TTITLE7=You Are Merciful
TTITLE8=Reign On Me
TTITLE9=Everyday
TTITLE10=I'm Watching the World Go By
TTITLE11=Do You Know Why
TTITLE12=Psalm 141
EXTD=
EXTT0=
EXTT1=
EXTT2=
EXTT3=
EXTT4=
EXTT5=
EXTT6=
EXTT7=
EXTT8=
EXTT9=
EXTT10=
EXTT11=
EXTT12=
PLAYORDER=
